<?xml version="1.0" encoding="utf-8"?>
<!-- Generator: Adobe Illustrator 23.0.3, SVG Export Plug-In . SVG Version: 6.00 Build 0)  -->
<svg version="1.1" id="Layer_1" xmlns="http://www.w3.org/2000/svg" xmlns:xlink="http://www.w3.org/1999/xlink" x="0px" y="0px"
	 viewBox="0 0 64 64" style="enable-background:new 0 0 64 64;" xml:space="preserve">
<style type="text/css">
	.st0{fill-rule:evenodd;clip-rule:evenodd;fill:white;}
</style>
<title>Artboard</title>
<desc>Created with Sketch.</desc>
<g id="collected-images">
	<g id="Artboard">
		<g id="Listen-icon">
			<g id="listen" transform="translate(10.000000, 14.000000)">
				<g>
					<path id="Shape" class="st0" d="M0,10.1v16h8l11,9v-34l-11,9H0z M27.8,11.1c-0.5-0.5-1.2-0.8-1.9-0.6c-0.7,0.1-1.3,0.6-1.5,1.3
						c-0.2,0.7-0.1,1.4,0.4,2c2,2.3,2.1,5.8,0.2,8.3l-0.2,0.3c-0.6,0.8-0.5,2,0.3,2.7c0.8,0.7,2,0.7,2.7-0.1l0.4-0.4
						C31.3,20.5,31.1,14.8,27.8,11.1L27.8,11.1z M32.8,6.1c-0.5-0.6-1.2-0.8-1.9-0.6s-1.3,0.7-1.5,1.4s0,1.5,0.5,2
						c4.8,5.2,4.8,13.2,0,18.4c-0.5,0.5-0.7,1.3-0.4,2c0.2,0.7,0.8,1.2,1.5,1.4c0.7,0.2,1.4-0.1,1.9-0.6C39,23.2,39,12.8,32.8,6.1
						L32.8,6.1z M37.7,1.1c-0.5-0.6-1.2-0.8-1.9-0.6s-1.3,0.7-1.5,1.4s0,1.5,0.5,2c7.5,7.9,7.5,20.3,0,28.2
						c-0.5,0.5-0.7,1.3-0.5,1.9c0.2,0.7,0.8,1.2,1.5,1.4c0.7,0.2,1.4,0,1.9-0.6C46.7,25.4,46.7,10.6,37.7,1.1L37.7,1.1z"/>
				</g>
			</g>
		</g>
	</g>
</g>
</svg>
