<?xml version="1.0" encoding="utf-8"?>
<!-- Generator: Adobe Illustrator 23.0.3, SVG Export Plug-In . SVG Version: 6.00 Build 0)  -->
<svg version="1.1" id="Layer_1" xmlns="http://www.w3.org/2000/svg" xmlns:xlink="http://www.w3.org/1999/xlink" x="0px" y="0px"
	 viewBox="0 0 64 64" style="enable-background:new 0 0 64 64;" xml:space="preserve">
<style type="text/css">
	.st0{fill-rule:evenodd;clip-rule:evenodd;fill:white;}
</style>
<title>Speak icon</title>
<desc>Created with Sketch.</desc>
<g id="collected-images">
	<g id="a">
		<g id="Speak-icon">
			<g id="record" transform="translate(17.000000, 10.000000)">
				<g>
					<path id="Shape" class="st0" d="M15,29c4.4,0,8-3.6,8-8V8.1c0-4.4-3.6-8-8-8s-8,3.6-8,8V21C7,25.4,10.6,29,15,29z M28,14.5
						c-1.1,0-2,0.9-2,2v4.4c0,6.1-4.9,11-11,11S4,27,4,20.9v-4.4c0-1.1-0.9-2-2-2s-2,0.9-2,2v4.4c0,7.3,5.3,13.6,12.5,14.8v0.2V40
						H10c-1.1,0-2,0.9-2,2s0.9,2,2,2h10c1.1,0,2-0.9,2-2s-0.9-2-2-2h-2.5v-4.2v-0.1C24.7,34.4,30,28.2,30,20.9v-4.4
						C30,15.4,29.1,14.5,28,14.5L28,14.5z"/>
				</g>
			</g>
		</g>
	</g>
</g>
</svg>
